<svg xmlns="http://www.w3.org/2000/svg" viewBox="0 0 64 64" width="64" height="64">
  <defs>
    <linearGradient id="bg" x1="0%" y1="0%" x2="100%" y2="100%">
      <stop offset="0%" stop-color="#0064e8"/>
      <stop offset="100%" stop-color="#004fc9"/>
    </linearGradient>
  </defs>
  <rect width="64" height="64" rx="14" fill="url(#bg)"/>
  <!-- Film strip body -->
  <rect x="12" y="18" width="40" height="28" rx="3" fill="none" stroke="#fff" stroke-width="2.5"/>
  <!-- Sprocket holes top -->
  <rect x="15" y="20" width="4" height="4" rx="1" fill="#fff" opacity="0.7"/>
  <rect x="23" y="20" width="4" height="4" rx="1" fill="#fff" opacity="0.7"/>
  <rect x="31" y="20" width="4" height="4" rx="1" fill="#fff" opacity="0.7"/>
  <rect x="39" y="20" width="4" height="4" rx="1" fill="#fff" opacity="0.7"/>
  <!-- Sprocket holes bottom -->
  <rect x="15" y="40" width="4" height="4" rx="1" fill="#fff" opacity="0.7"/>
  <rect x="23" y="40" width="4" height="4" rx="1" fill="#fff" opacity="0.7"/>
  <rect x="31" y="40" width="4" height="4" rx="1" fill="#fff" opacity="0.7"/>
  <rect x="39" y="40" width="4" height="4" rx="1" fill="#fff" opacity="0.7"/>
  <!-- Play triangle -->
  <polygon points="27,27 27,37 38,32" fill="#fff"/>
</svg>
